<mxfile host="app.diagrams.net" modified="2024-04-26T08:05:15.682Z" agent="Mozilla/5.0 (X11; Linux x86_64) AppleWebKit/537.36 (KHTML, like Gecko) Chrome/124.0.0.0 Safari/537.36" etag="9aRNWilsO-V88A5nvamX" scale="1" border="0" version="24.3.0" type="device">
  <diagram name="Page-1" id="cqbrpnfgSKvpPJpwKRJ_">
    <mxGraphModel dx="2522" dy="918" grid="1" gridSize="10" guides="1" tooltips="1" connect="1" arrows="1" fold="1" page="1" pageScale="1" pageWidth="850" pageHeight="1100" math="0" shadow="0">
      <root>
        <mxCell id="0" />
        <mxCell id="1" parent="0" />
        <mxCell id="JSB7apkSR-UXOg-A_9qh-1" value="user.exchange&lt;br&gt;(direct)" style="rhombus;whiteSpace=wrap;html=1;fillColor=#ffe6cc;strokeColor=#d79b00;" parent="1" vertex="1">
          <mxGeometry y="520" width="120" height="80" as="geometry" />
        </mxCell>
        <mxCell id="JSB7apkSR-UXOg-A_9qh-2" value="&lt;font style=&quot;font-size: 12px;&quot;&gt;link.exchange&lt;br&gt;(direct)&lt;/font&gt;" style="rhombus;whiteSpace=wrap;html=1;fillColor=#ffe6cc;strokeColor=#d79b00;" parent="1" vertex="1">
          <mxGeometry y="280" width="120" height="80" as="geometry" />
        </mxCell>
        <mxCell id="JSB7apkSR-UXOg-A_9qh-3" value="click.exchange&lt;br&gt;(direct)" style="rhombus;whiteSpace=wrap;html=1;fillColor=#ffe6cc;strokeColor=#d79b00;" parent="1" vertex="1">
          <mxGeometry y="160" width="120" height="80" as="geometry" />
        </mxCell>
        <mxCell id="JSB7apkSR-UXOg-A_9qh-4" value="email.exchange&lt;br&gt;(direct)" style="rhombus;whiteSpace=wrap;html=1;fillColor=#ffe6cc;strokeColor=#d79b00;" parent="1" vertex="1">
          <mxGeometry y="640" width="120" height="80" as="geometry" />
        </mxCell>
        <mxCell id="JSB7apkSR-UXOg-A_9qh-9" value="" style="endArrow=classic;html=1;rounded=0;exitX=1;exitY=0.5;exitDx=0;exitDy=0;entryX=0;entryY=0.5;entryDx=0;entryDy=0;" parent="1" source="JSB7apkSR-UXOg-A_9qh-4" target="JSB7apkSR-UXOg-A_9qh-51" edge="1">
          <mxGeometry width="50" height="50" relative="1" as="geometry">
            <mxPoint x="240" y="630" as="sourcePoint" />
            <mxPoint x="440" y="680" as="targetPoint" />
          </mxGeometry>
        </mxCell>
        <mxCell id="JSB7apkSR-UXOg-A_9qh-10" value="email.command.send" style="edgeLabel;html=1;align=center;verticalAlign=middle;resizable=0;points=[];" parent="JSB7apkSR-UXOg-A_9qh-9" vertex="1" connectable="0">
          <mxGeometry x="0.0094" y="1" relative="1" as="geometry">
            <mxPoint x="-14" y="1" as="offset" />
          </mxGeometry>
        </mxCell>
        <mxCell id="JSB7apkSR-UXOg-A_9qh-11" value="" style="endArrow=classic;html=1;rounded=0;exitX=1;exitY=0.5;exitDx=0;exitDy=0;entryX=0;entryY=0.5;entryDx=0;entryDy=0;" parent="1" source="JSB7apkSR-UXOg-A_9qh-1" target="JSB7apkSR-UXOg-A_9qh-50" edge="1">
          <mxGeometry width="50" height="50" relative="1" as="geometry">
            <mxPoint x="110" y="490.20000000000005" as="sourcePoint" />
            <mxPoint x="440" y="560" as="targetPoint" />
          </mxGeometry>
        </mxCell>
        <mxCell id="JSB7apkSR-UXOg-A_9qh-12" value="user.event.deleted" style="edgeLabel;html=1;align=center;verticalAlign=middle;resizable=0;points=[];rotation=0;" parent="JSB7apkSR-UXOg-A_9qh-11" vertex="1" connectable="0">
          <mxGeometry x="-0.0438" y="1" relative="1" as="geometry">
            <mxPoint x="-7" y="1" as="offset" />
          </mxGeometry>
        </mxCell>
        <mxCell id="JSB7apkSR-UXOg-A_9qh-13" value="" style="endArrow=classic;html=1;rounded=0;entryX=0;entryY=0.5;entryDx=0;entryDy=0;" parent="1" source="JSB7apkSR-UXOg-A_9qh-2" target="JSB7apkSR-UXOg-A_9qh-52" edge="1">
          <mxGeometry width="50" height="50" relative="1" as="geometry">
            <mxPoint x="150" y="380" as="sourcePoint" />
            <mxPoint x="440" y="360" as="targetPoint" />
          </mxGeometry>
        </mxCell>
        <mxCell id="JSB7apkSR-UXOg-A_9qh-15" value="link.event.updated,&lt;br&gt;link.event.deleted" style="edgeLabel;html=1;align=center;verticalAlign=middle;resizable=0;points=[];rotation=0;" parent="JSB7apkSR-UXOg-A_9qh-13" vertex="1" connectable="0">
          <mxGeometry x="-0.1983" y="-1" relative="1" as="geometry">
            <mxPoint x="39" y="-1" as="offset" />
          </mxGeometry>
        </mxCell>
        <mxCell id="JSB7apkSR-UXOg-A_9qh-18" value="" style="endArrow=classic;html=1;rounded=0;entryX=0;entryY=0.75;entryDx=0;entryDy=0;" parent="1" target="JSB7apkSR-UXOg-A_9qh-53" edge="1" source="JSB7apkSR-UXOg-A_9qh-2">
          <mxGeometry width="50" height="50" relative="1" as="geometry">
            <mxPoint x="160" y="370" as="sourcePoint" />
            <mxPoint x="440" y="280" as="targetPoint" />
          </mxGeometry>
        </mxCell>
        <mxCell id="JSB7apkSR-UXOg-A_9qh-19" value="link.request.statistic,&lt;br&gt;link.event.deleted" style="edgeLabel;html=1;align=center;verticalAlign=middle;resizable=0;points=[];rotation=347;" parent="JSB7apkSR-UXOg-A_9qh-18" vertex="1" connectable="0">
          <mxGeometry x="-0.069" y="1" relative="1" as="geometry">
            <mxPoint x="20" y="-7" as="offset" />
          </mxGeometry>
        </mxCell>
        <mxCell id="JSB7apkSR-UXOg-A_9qh-21" value="" style="endArrow=classic;html=1;rounded=0;exitX=1;exitY=0.5;exitDx=0;exitDy=0;entryX=0;entryY=0.5;entryDx=0;entryDy=0;" parent="1" target="JSB7apkSR-UXOg-A_9qh-53" edge="1" source="JSB7apkSR-UXOg-A_9qh-3">
          <mxGeometry width="50" height="50" relative="1" as="geometry">
            <mxPoint x="120" y="359.94" as="sourcePoint" />
            <mxPoint x="440" y="200" as="targetPoint" />
          </mxGeometry>
        </mxCell>
        <mxCell id="JSB7apkSR-UXOg-A_9qh-22" value="click.command.create" style="edgeLabel;html=1;align=center;verticalAlign=middle;resizable=0;points=[];rotation=0;" parent="JSB7apkSR-UXOg-A_9qh-21" vertex="1" connectable="0">
          <mxGeometry x="-0.2116" y="-1" relative="1" as="geometry">
            <mxPoint x="42" y="-2" as="offset" />
          </mxGeometry>
        </mxCell>
        <mxCell id="JSB7apkSR-UXOg-A_9qh-24" value="link-service" style="rounded=1;whiteSpace=wrap;html=1;fillColor=#dae8fc;strokeColor=#6c8ebf;" parent="1" vertex="1">
          <mxGeometry x="-524" y="360" width="120" height="40" as="geometry" />
        </mxCell>
        <mxCell id="JSB7apkSR-UXOg-A_9qh-26" value="auth-service" style="rounded=1;whiteSpace=wrap;html=1;fillColor=#dae8fc;strokeColor=#6c8ebf;" parent="1" vertex="1">
          <mxGeometry x="-524" y="600" width="120" height="40" as="geometry" />
        </mxCell>
        <mxCell id="JSB7apkSR-UXOg-A_9qh-27" value="statistic-service" style="rounded=1;whiteSpace=wrap;html=1;fillColor=#dae8fc;strokeColor=#6c8ebf;" parent="1" vertex="1">
          <mxGeometry x="-524" y="480" width="120" height="40" as="geometry" />
        </mxCell>
        <mxCell id="JSB7apkSR-UXOg-A_9qh-28" value="click-service" style="rounded=1;whiteSpace=wrap;html=1;fillColor=#dae8fc;strokeColor=#6c8ebf;" parent="1" vertex="1">
          <mxGeometry x="-524" y="180" width="120" height="40" as="geometry" />
        </mxCell>
        <mxCell id="JSB7apkSR-UXOg-A_9qh-29" value="" style="endArrow=classic;html=1;rounded=0;entryX=0;entryY=0.5;entryDx=0;entryDy=0;exitX=1.001;exitY=0.731;exitDx=0;exitDy=0;exitPerimeter=0;" parent="1" source="JSB7apkSR-UXOg-A_9qh-26" target="JSB7apkSR-UXOg-A_9qh-4" edge="1">
          <mxGeometry width="50" height="50" relative="1" as="geometry">
            <mxPoint x="-310" y="530" as="sourcePoint" />
            <mxPoint x="-80" y="320" as="targetPoint" />
          </mxGeometry>
        </mxCell>
        <mxCell id="JSB7apkSR-UXOg-A_9qh-30" value="email.command.send" style="edgeLabel;html=1;align=center;verticalAlign=middle;resizable=0;points=[];rotation=7;" parent="JSB7apkSR-UXOg-A_9qh-29" vertex="1" connectable="0">
          <mxGeometry x="-0.2835" y="2" relative="1" as="geometry">
            <mxPoint x="39" y="6" as="offset" />
          </mxGeometry>
        </mxCell>
        <mxCell id="JSB7apkSR-UXOg-A_9qh-31" value="" style="endArrow=classic;html=1;rounded=0;exitX=1;exitY=0.5;exitDx=0;exitDy=0;entryX=0;entryY=0.5;entryDx=0;entryDy=0;" parent="1" source="JSB7apkSR-UXOg-A_9qh-28" target="JSB7apkSR-UXOg-A_9qh-3" edge="1">
          <mxGeometry width="50" height="50" relative="1" as="geometry">
            <mxPoint x="-120" y="500" as="sourcePoint" />
            <mxPoint x="-70" y="450" as="targetPoint" />
          </mxGeometry>
        </mxCell>
        <mxCell id="JSB7apkSR-UXOg-A_9qh-32" value="click.command.create" style="edgeLabel;html=1;align=center;verticalAlign=middle;resizable=0;points=[];rotation=0;" parent="JSB7apkSR-UXOg-A_9qh-31" vertex="1" connectable="0">
          <mxGeometry x="-0.1002" y="1" relative="1" as="geometry">
            <mxPoint x="5" as="offset" />
          </mxGeometry>
        </mxCell>
        <mxCell id="JSB7apkSR-UXOg-A_9qh-33" value="" style="endArrow=classic;html=1;rounded=0;exitX=1;exitY=0.25;exitDx=0;exitDy=0;entryX=0;entryY=0.5;entryDx=0;entryDy=0;" parent="1" source="JSB7apkSR-UXOg-A_9qh-24" target="JSB7apkSR-UXOg-A_9qh-2" edge="1">
          <mxGeometry width="50" height="50" relative="1" as="geometry">
            <mxPoint x="40" y="390" as="sourcePoint" />
            <mxPoint x="90" y="340" as="targetPoint" />
          </mxGeometry>
        </mxCell>
        <mxCell id="JSB7apkSR-UXOg-A_9qh-34" value="link.request.statistic,&lt;br&gt;link.event.updated,&lt;br&gt;link.event.deleted" style="edgeLabel;html=1;align=center;verticalAlign=middle;resizable=0;points=[];rotation=353;" parent="JSB7apkSR-UXOg-A_9qh-33" vertex="1" connectable="0">
          <mxGeometry x="-0.1773" y="1" relative="1" as="geometry">
            <mxPoint x="20" y="-3" as="offset" />
          </mxGeometry>
        </mxCell>
        <mxCell id="JSB7apkSR-UXOg-A_9qh-36" value="" style="endArrow=classic;html=1;rounded=0;entryX=0;entryY=0.5;entryDx=0;entryDy=0;exitX=1.002;exitY=0.302;exitDx=0;exitDy=0;exitPerimeter=0;" parent="1" source="JSB7apkSR-UXOg-A_9qh-26" target="JSB7apkSR-UXOg-A_9qh-1" edge="1">
          <mxGeometry width="50" height="50" relative="1" as="geometry">
            <mxPoint x="-310" y="560" as="sourcePoint" />
            <mxPoint x="-10" y="450" as="targetPoint" />
          </mxGeometry>
        </mxCell>
        <mxCell id="JSB7apkSR-UXOg-A_9qh-37" value="user.event.deleted" style="edgeLabel;html=1;align=center;verticalAlign=middle;resizable=0;points=[];rotation=353.5;" parent="JSB7apkSR-UXOg-A_9qh-36" vertex="1" connectable="0">
          <mxGeometry x="-0.0413" y="1" relative="1" as="geometry">
            <mxPoint x="-11" y="1" as="offset" />
          </mxGeometry>
        </mxCell>
        <mxCell id="JSB7apkSR-UXOg-A_9qh-38" value="" style="endArrow=classic;html=1;rounded=0;exitX=1;exitY=0.5;exitDx=0;exitDy=0;entryX=0;entryY=0.5;entryDx=0;entryDy=0;" parent="1" source="JSB7apkSR-UXOg-A_9qh-27" target="JSB7apkSR-UXOg-A_9qh-40" edge="1">
          <mxGeometry width="50" height="50" relative="1" as="geometry">
            <mxPoint x="-230" y="650" as="sourcePoint" />
            <mxPoint x="-640" y="830" as="targetPoint" />
          </mxGeometry>
        </mxCell>
        <mxCell id="JSB7apkSR-UXOg-A_9qh-42" value="reply to link.request.statistic" style="edgeLabel;html=1;align=center;verticalAlign=middle;resizable=0;points=[];rotation=351.5;" parent="JSB7apkSR-UXOg-A_9qh-38" vertex="1" connectable="0">
          <mxGeometry x="-0.232" y="2" relative="1" as="geometry">
            <mxPoint x="35" y="-4" as="offset" />
          </mxGeometry>
        </mxCell>
        <mxCell id="JSB7apkSR-UXOg-A_9qh-40" value="AMQP Default&lt;br&gt;(direct)" style="rhombus;whiteSpace=wrap;html=1;fillColor=#ffe6cc;strokeColor=#d79b00;" parent="1" vertex="1">
          <mxGeometry y="400" width="120" height="80" as="geometry" />
        </mxCell>
        <mxCell id="JSB7apkSR-UXOg-A_9qh-50" value="link-service" style="rounded=1;whiteSpace=wrap;html=1;fillColor=#f8cecc;strokeColor=#b85450;" parent="1" vertex="1">
          <mxGeometry x="520" y="540" width="120" height="40" as="geometry" />
        </mxCell>
        <mxCell id="JSB7apkSR-UXOg-A_9qh-51" value="email-service" style="rounded=1;whiteSpace=wrap;html=1;fillColor=#f8cecc;strokeColor=#b85450;" parent="1" vertex="1">
          <mxGeometry x="520" y="660" width="120" height="40" as="geometry" />
        </mxCell>
        <mxCell id="JSB7apkSR-UXOg-A_9qh-52" value="click-service" style="rounded=1;whiteSpace=wrap;html=1;fillColor=#f8cecc;strokeColor=#b85450;" parent="1" vertex="1">
          <mxGeometry x="520" y="300" width="120" height="40" as="geometry" />
        </mxCell>
        <mxCell id="JSB7apkSR-UXOg-A_9qh-53" value="statistic-service" style="rounded=1;whiteSpace=wrap;html=1;fillColor=#f8cecc;strokeColor=#b85450;" parent="1" vertex="1">
          <mxGeometry x="520" y="180" width="120" height="40" as="geometry" />
        </mxCell>
        <mxCell id="JSB7apkSR-UXOg-A_9qh-59" value="" style="endArrow=classic;html=1;rounded=0;entryX=0;entryY=0.25;entryDx=0;entryDy=0;" parent="1" source="JSB7apkSR-UXOg-A_9qh-40" target="JSB7apkSR-UXOg-A_9qh-50" edge="1">
          <mxGeometry width="50" height="50" relative="1" as="geometry">
            <mxPoint x="140" y="480" as="sourcePoint" />
            <mxPoint x="920" y="680" as="targetPoint" />
          </mxGeometry>
        </mxCell>
        <mxCell id="fS_6RZ5jzGDMbAujFmGW-14" value="reply to link.request.statistic" style="edgeLabel;html=1;align=center;verticalAlign=middle;resizable=0;points=[];rotation=14;" vertex="1" connectable="0" parent="JSB7apkSR-UXOg-A_9qh-59">
          <mxGeometry x="-0.2518" y="3" relative="1" as="geometry">
            <mxPoint x="52" y="14" as="offset" />
          </mxGeometry>
        </mxCell>
        <mxCell id="JSB7apkSR-UXOg-A_9qh-60" value="Producers" style="text;html=1;strokeColor=none;fillColor=none;align=center;verticalAlign=middle;whiteSpace=wrap;rounded=0;fontSize=24;fontStyle=1" parent="1" vertex="1">
          <mxGeometry x="-524" y="90" width="120" height="30" as="geometry" />
        </mxCell>
        <mxCell id="JSB7apkSR-UXOg-A_9qh-61" value="Exchanges" style="text;html=1;strokeColor=none;fillColor=none;align=center;verticalAlign=middle;whiteSpace=wrap;rounded=0;fontSize=24;fontStyle=1" parent="1" vertex="1">
          <mxGeometry x="-40" y="90" width="200" height="30" as="geometry" />
        </mxCell>
        <mxCell id="JSB7apkSR-UXOg-A_9qh-63" value="Consumers" style="text;html=1;strokeColor=none;fillColor=none;align=center;verticalAlign=middle;whiteSpace=wrap;rounded=0;fontSize=24;fontStyle=1" parent="1" vertex="1">
          <mxGeometry x="480" y="90" width="200" height="30" as="geometry" />
        </mxCell>
        <mxCell id="fS_6RZ5jzGDMbAujFmGW-1" value="demo-service" style="rounded=1;whiteSpace=wrap;html=1;fillColor=#dae8fc;strokeColor=#6c8ebf;" vertex="1" parent="1">
          <mxGeometry x="-524" y="260" width="120" height="40" as="geometry" />
        </mxCell>
        <mxCell id="fS_6RZ5jzGDMbAujFmGW-2" value="" style="endArrow=classic;html=1;rounded=0;exitX=1;exitY=0.25;exitDx=0;exitDy=0;" edge="1" parent="1" source="fS_6RZ5jzGDMbAujFmGW-1">
          <mxGeometry width="50" height="50" relative="1" as="geometry">
            <mxPoint x="100" y="540" as="sourcePoint" />
            <mxPoint y="200" as="targetPoint" />
          </mxGeometry>
        </mxCell>
        <mxCell id="fS_6RZ5jzGDMbAujFmGW-3" value="click.command.create" style="edgeLabel;html=1;align=center;verticalAlign=middle;resizable=0;points=[];rotation=351;" vertex="1" connectable="0" parent="fS_6RZ5jzGDMbAujFmGW-2">
          <mxGeometry x="-0.0289" y="3" relative="1" as="geometry">
            <mxPoint x="-7" y="3" as="offset" />
          </mxGeometry>
        </mxCell>
        <mxCell id="fS_6RZ5jzGDMbAujFmGW-4" value="" style="endArrow=classic;html=1;rounded=0;exitX=1;exitY=0.75;exitDx=0;exitDy=0;entryX=0;entryY=0.5;entryDx=0;entryDy=0;" edge="1" parent="1" source="fS_6RZ5jzGDMbAujFmGW-1" target="JSB7apkSR-UXOg-A_9qh-2">
          <mxGeometry width="50" height="50" relative="1" as="geometry">
            <mxPoint x="-300" y="320" as="sourcePoint" />
            <mxPoint x="730" y="420" as="targetPoint" />
          </mxGeometry>
        </mxCell>
        <mxCell id="fS_6RZ5jzGDMbAujFmGW-5" value="link.request.verify-ownership" style="edgeLabel;html=1;align=center;verticalAlign=middle;resizable=0;points=[];rotation=4.5;" vertex="1" connectable="0" parent="fS_6RZ5jzGDMbAujFmGW-4">
          <mxGeometry x="-0.0047" y="1" relative="1" as="geometry">
            <mxPoint x="-12" y="-1" as="offset" />
          </mxGeometry>
        </mxCell>
        <mxCell id="fS_6RZ5jzGDMbAujFmGW-6" value="demo-service" style="rounded=1;whiteSpace=wrap;html=1;fillColor=#f8cecc;strokeColor=#b85450;" vertex="1" parent="1">
          <mxGeometry x="520" y="420" width="120" height="40" as="geometry" />
        </mxCell>
        <mxCell id="fS_6RZ5jzGDMbAujFmGW-7" value="" style="endArrow=classic;html=1;rounded=0;entryX=0;entryY=0.5;entryDx=0;entryDy=0;exitX=1;exitY=0.5;exitDx=0;exitDy=0;" edge="1" parent="1" source="JSB7apkSR-UXOg-A_9qh-40" target="fS_6RZ5jzGDMbAujFmGW-6">
          <mxGeometry width="50" height="50" relative="1" as="geometry">
            <mxPoint x="600" y="440" as="sourcePoint" />
            <mxPoint x="470" y="800" as="targetPoint" />
          </mxGeometry>
        </mxCell>
        <mxCell id="fS_6RZ5jzGDMbAujFmGW-13" value="reply to link.verify.ownership" style="edgeLabel;html=1;align=center;verticalAlign=middle;resizable=0;points=[];" vertex="1" connectable="0" parent="fS_6RZ5jzGDMbAujFmGW-7">
          <mxGeometry x="-0.286" y="-1" relative="1" as="geometry">
            <mxPoint x="53" y="-3" as="offset" />
          </mxGeometry>
        </mxCell>
        <mxCell id="fS_6RZ5jzGDMbAujFmGW-8" value="" style="endArrow=classic;html=1;rounded=0;entryX=0;entryY=0.5;entryDx=0;entryDy=0;exitX=1;exitY=0.75;exitDx=0;exitDy=0;" edge="1" parent="1" source="JSB7apkSR-UXOg-A_9qh-24" target="JSB7apkSR-UXOg-A_9qh-40">
          <mxGeometry width="50" height="50" relative="1" as="geometry">
            <mxPoint x="-280" y="400" as="sourcePoint" />
            <mxPoint x="-580" y="660" as="targetPoint" />
            <Array as="points" />
          </mxGeometry>
        </mxCell>
        <mxCell id="fS_6RZ5jzGDMbAujFmGW-10" value="reply to link.verify.ownership" style="edgeLabel;html=1;align=center;verticalAlign=middle;resizable=0;points=[];rotation=7;" vertex="1" connectable="0" parent="fS_6RZ5jzGDMbAujFmGW-8">
          <mxGeometry x="0.4485" y="2" relative="1" as="geometry">
            <mxPoint x="-102" y="-11" as="offset" />
          </mxGeometry>
        </mxCell>
      </root>
    </mxGraphModel>
  </diagram>
</mxfile>
